<svg width="22" height="20" viewBox="0 0 22 20" fill="none" xmlns="http://www.w3.org/2000/svg">
<rect width="22" height="20" fill="#F5F5F5"/>
<g clip-path="url(#clip0_0_1)">
<rect width="375" height="1206" transform="translate(-21 -852)" fill="white"/>
<rect x="-21" y="-18" width="375" height="56" fill="white"/>
<mask id="path-2-outside-1_0_1" maskUnits="userSpaceOnUse" x="0" y="0.333313" width="22" height="19" fill="black">
<rect fill="white" y="0.333313" width="22" height="19"/>
<path d="M15.3443 1.33331C13.6393 1.33331 12.0673 2.05361 11.0003 3.29293C9.93333 2.05329 8.36173 1.33331 6.65639 1.33331C3.53762 1.33331 1 3.78098 1 6.78992C1 12.303 7.78726 16.8764 10.7051 18.587C10.7957 18.6402 10.8977 18.6666 11 18.6666C11.1023 18.6666 11.2043 18.6402 11.2949 18.587C14.2131 16.8767 21 12.3033 21 6.78992C21 3.7813 18.4627 1.33331 15.3436 1.33331H15.3443ZM17.1011 12.6533C15.586 14.3271 13.4814 15.99 11.0003 17.4757C8.51923 15.99 6.41497 14.3271 4.89955 12.6533C3.06581 10.6279 2.13623 8.65502 2.13623 6.78992C2.13623 4.38548 4.16391 2.42941 6.65639 2.42941C8.2437 2.42941 9.68622 3.21067 10.5158 4.51902C10.6191 4.68192 10.8027 4.78127 11.0003 4.78127C11.198 4.78127 11.3819 4.68192 11.4849 4.51902C12.3141 3.21067 13.757 2.42941 15.3443 2.42941C17.8368 2.42941 19.8644 4.38548 19.8644 6.78992C19.8644 8.65502 18.9345 10.6279 17.1011 12.6533Z"/>
</mask>
<path d="M15.3443 1.33331C13.6393 1.33331 12.0673 2.05361 11.0003 3.29293C9.93333 2.05329 8.36173 1.33331 6.65639 1.33331C3.53762 1.33331 1 3.78098 1 6.78992C1 12.303 7.78726 16.8764 10.7051 18.587C10.7957 18.6402 10.8977 18.6666 11 18.6666C11.1023 18.6666 11.2043 18.6402 11.2949 18.587C14.2131 16.8767 21 12.3033 21 6.78992C21 3.7813 18.4627 1.33331 15.3436 1.33331H15.3443ZM17.1011 12.6533C15.586 14.3271 13.4814 15.99 11.0003 17.4757C8.51923 15.99 6.41497 14.3271 4.89955 12.6533C3.06581 10.6279 2.13623 8.65502 2.13623 6.78992C2.13623 4.38548 4.16391 2.42941 6.65639 2.42941C8.2437 2.42941 9.68622 3.21067 10.5158 4.51902C10.6191 4.68192 10.8027 4.78127 11.0003 4.78127C11.198 4.78127 11.3819 4.68192 11.4849 4.51902C12.3141 3.21067 13.757 2.42941 15.3443 2.42941C17.8368 2.42941 19.8644 4.38548 19.8644 6.78992C19.8644 8.65502 18.9345 10.6279 17.1011 12.6533Z" fill="#AFB9CA"/>
<path d="M15.3443 1.33331C13.6393 1.33331 12.0673 2.05361 11.0003 3.29293C9.93333 2.05329 8.36173 1.33331 6.65639 1.33331C3.53762 1.33331 1 3.78098 1 6.78992C1 12.303 7.78726 16.8764 10.7051 18.587C10.7957 18.6402 10.8977 18.6666 11 18.6666C11.1023 18.6666 11.2043 18.6402 11.2949 18.587C14.2131 16.8767 21 12.3033 21 6.78992C21 3.7813 18.4627 1.33331 15.3436 1.33331H15.3443ZM17.1011 12.6533C15.586 14.3271 13.4814 15.99 11.0003 17.4757C8.51923 15.99 6.41497 14.3271 4.89955 12.6533C3.06581 10.6279 2.13623 8.65502 2.13623 6.78992C2.13623 4.38548 4.16391 2.42941 6.65639 2.42941C8.2437 2.42941 9.68622 3.21067 10.5158 4.51902C10.6191 4.68192 10.8027 4.78127 11.0003 4.78127C11.198 4.78127 11.3819 4.68192 11.4849 4.51902C12.3141 3.21067 13.757 2.42941 15.3443 2.42941C17.8368 2.42941 19.8644 4.38548 19.8644 6.78992C19.8644 8.65502 18.9345 10.6279 17.1011 12.6533Z" stroke="#AFB9CA" stroke-width="1.25" mask="url(#path-2-outside-1_0_1)"/>
</g>
<defs>
<clipPath id="clip0_0_1">
<rect width="375" height="1206" fill="white" transform="translate(-21 -852)"/>
</clipPath>
</defs>
</svg>
