<svg width="18" height="23" viewBox="0 0 18 23" fill="none" xmlns="http://www.w3.org/2000/svg">
<rect width="18" height="23" fill="#F5F5F5"/>
<g clip-path="url(#clip0_0_1)">
<rect width="375" height="1206" transform="translate(-117 -850)" fill="white"/>
<rect x="-117" y="-16" width="375" height="56" fill="white"/>
<mask id="path-2-inside-1_0_1" fill="white">
<path d="M15.1901 0.666504H2.8092C1.44729 0.666504 0.345389 1.79984 0.345389 3.18502L0.333615 21.7116C0.333328 22.1621 0.795358 22.465 1.20836 22.2849L8.25045 19.2153C8.72823 19.007 9.27112 19.007 9.7489 19.2153L16.7916 22.2852C17.2044 22.4652 17.6663 22.1626 17.6663 21.7123V3.18502C17.6663 1.79984 16.5521 0.666504 15.1901 0.666504Z"/>
</mask>
<path d="M15.1901 0.666504H2.8092C1.44729 0.666504 0.345389 1.79984 0.345389 3.18502L0.333615 21.7116C0.333328 22.1621 0.795358 22.465 1.20836 22.2849L8.25045 19.2153C8.72823 19.007 9.27112 19.007 9.7489 19.2153L16.7916 22.2852C17.2044 22.4652 17.6663 22.1626 17.6663 21.7123V3.18502C17.6663 1.79984 16.5521 0.666504 15.1901 0.666504Z" stroke="#AFB9CA" stroke-width="5" mask="url(#path-2-inside-1_0_1)"/>
</g>
<defs>
<clipPath id="clip0_0_1">
<rect width="375" height="1206" fill="white" transform="translate(-117 -850)"/>
</clipPath>
</defs>
</svg>
